<svg width="333" height="28" viewBox="0 0 333 28" fill="none" xmlns="http://www.w3.org/2000/svg">
<g clip-path="url(#clip0_4261_1467)">
<path d="M12.4908 2.70508C12.6766 4.37637 12.7231 7.05822 11.6699 10.0432C11.1821 11.4424 9.92758 14.8705 6.58225 17.2026C5.96274 17.6301 5.41293 17.9255 5.04123 18.1121H19.1969C19.4912 18.1121 19.7855 18.0421 20.041 17.9022C21.009 17.3736 21.6517 16.4175 21.7059 15.3758C21.7834 13.8522 20.5753 12.383 18.8485 12.1421C19.0808 12.0021 20.9858 10.805 21.0709 8.81502C21.1406 7.21368 19.9946 6.10985 19.166 5.30141C16.8351 3.05488 12.4908 2.70508 12.4908 2.70508Z" fill="#108F41"/>
<path d="M4.29008 21.3304C3.83319 21.0972 3.68606 20.9106 3.68606 20.5219C3.68606 20.1332 4.02679 19.8301 4.53788 19.8301C4.70824 19.8301 4.81666 19.8534 4.92507 19.8845C5.04123 19.9156 5.18062 19.9156 5.30452 19.8923C5.30452 20.0866 5.32775 20.3354 5.34324 20.5375C5.34324 20.553 5.34324 20.5686 5.30452 20.5763C5.2658 20.5763 5.25805 20.5763 5.25031 20.553C5.10318 20.2032 4.86312 19.9467 4.56111 19.9467C4.29782 19.9467 4.10422 20.1332 4.10422 20.4286C4.10422 20.5997 4.20489 20.7629 4.53013 20.9184L4.73922 21.0194C5.28129 21.2837 5.47488 21.4547 5.47488 21.9134C5.47488 22.4342 5.09543 22.7374 4.4527 22.7374C4.18941 22.7374 3.93386 22.6829 3.71703 22.6052C3.66283 22.3953 3.60862 22.1543 3.58539 21.9678C3.58539 21.9445 3.58539 21.9134 3.62411 21.9056C3.66283 21.9056 3.67831 21.9056 3.68606 21.9289C3.85642 22.3176 4.15843 22.6208 4.48367 22.6208C4.80891 22.6208 5.03348 22.3875 5.03348 22.0688C5.03348 21.7812 4.86312 21.6257 4.47593 21.4314L4.28233 21.3304H4.29008Z" fill="#108F41"/>
<path d="M7.34888 21.6257C7.22498 21.6257 7.06236 21.6102 6.91523 21.6102C6.75261 21.6102 6.60547 21.6102 6.44285 21.6257L6.29572 22.03C6.21054 22.2554 6.21828 22.372 6.257 22.4575C6.28798 22.5352 6.41962 22.5663 6.55127 22.5819C6.5745 22.5819 6.58224 22.5819 6.58224 22.6285C6.58224 22.6752 6.5745 22.6752 6.54352 22.6752C6.40414 22.6752 6.21054 22.6752 6.06341 22.6752C5.93176 22.6752 5.79237 22.6752 5.66073 22.6752C5.62975 22.6752 5.62201 22.6752 5.62201 22.6285C5.62201 22.5819 5.62201 22.5819 5.66073 22.5819C5.7614 22.5663 5.83109 22.5197 5.8853 22.4653C5.96274 22.3875 6.03243 22.2476 6.11761 22.0144L6.5745 20.7707C6.75261 20.2887 6.79133 20.1721 6.84553 19.97L7.14754 19.8301C7.14754 19.8301 7.18626 19.8301 7.19401 19.8612C7.27144 20.1021 7.34114 20.2887 7.5115 20.794L7.94516 22.0455C8.0226 22.2709 8.0768 22.4031 8.13875 22.4808C8.2007 22.5586 8.23942 22.5663 8.38655 22.5819C8.42527 22.5819 8.43302 22.5819 8.43302 22.6285C8.43302 22.6752 8.43302 22.6752 8.38655 22.6752C8.22393 22.6752 8.00711 22.6752 7.84449 22.6752C7.69735 22.6752 7.47278 22.6752 7.31016 22.6752C7.28693 22.6752 7.27919 22.6752 7.27919 22.6285C7.27919 22.5819 7.27919 22.5819 7.31016 22.5819C7.4573 22.5819 7.55022 22.5586 7.57345 22.4808C7.59668 22.3953 7.57345 22.2865 7.50376 22.0766L7.34114 21.6257H7.34888ZM7.06236 20.8018C6.97718 20.5452 6.9462 20.4364 6.89974 20.2965C6.84553 20.4442 6.81456 20.5452 6.72938 20.794L6.48157 21.4703C6.60547 21.4703 6.76035 21.4703 6.90748 21.4703C7.03139 21.4703 7.17852 21.4703 7.28693 21.4703L7.05462 20.8018H7.06236Z" fill="#108F41"/>
<path d="M9.08351 20.3041L9.099 21.9832C9.099 22.2319 9.12223 22.3952 9.17644 22.4729C9.23064 22.5507 9.3468 22.574 9.46296 22.5895C9.49393 22.5895 9.49393 22.5973 9.49393 22.6362C9.49393 22.675 9.49393 22.6828 9.45521 22.6828C9.30808 22.6828 9.16869 22.675 9.00607 22.675C8.84345 22.675 8.68858 22.675 8.54919 22.6828C8.51821 22.6828 8.51821 22.6828 8.51821 22.6439C8.51821 22.6051 8.51821 22.5973 8.54919 22.5973C8.6576 22.5817 8.76601 22.5584 8.81248 22.4729C8.87443 22.3874 8.9054 22.2242 8.9054 21.9832L8.92089 20.5917C8.92089 20.343 8.91315 20.1953 8.85894 20.1253C8.80473 20.0476 8.68083 20.0243 8.54144 20.0087C8.51821 20.0087 8.51047 20.001 8.51047 19.9543C8.51047 19.9154 8.51047 19.8999 8.54144 19.8999C8.68083 19.8999 8.82796 19.9077 8.94412 19.9077C9.06028 19.9077 9.2229 19.9077 9.40875 19.9077C9.49393 20.0631 9.55588 20.1564 9.70302 20.3819L10.5781 21.6878C10.7097 21.8899 10.7949 22.0065 10.8878 22.1853V20.6073C10.8878 20.3819 10.8414 20.2186 10.7872 20.1331C10.7407 20.0554 10.6168 20.0321 10.5161 20.0165C10.4851 20.0165 10.4697 20.0165 10.4697 19.9621C10.4697 19.9154 10.4697 19.9077 10.5006 19.9077C10.6245 19.9077 10.7949 19.9232 10.942 19.9232C11.0892 19.9232 11.275 19.9232 11.3834 19.9077C11.4067 19.9077 11.4144 19.9077 11.4144 19.9621C11.4144 20.001 11.4144 20.0087 11.3834 20.0165C11.275 20.0321 11.1821 20.0554 11.1356 20.1331C11.0814 20.2186 11.0504 20.3896 11.0427 20.6073L11.0195 21.9987C11.0195 22.263 11.0195 22.4263 11.0195 22.6362C10.7717 22.7683 10.7562 22.7683 10.7407 22.7683C10.7252 22.7683 10.7175 22.7683 10.7097 22.7528C10.5858 22.5584 10.5161 22.4496 10.2761 22.0842L9.11449 20.3274H9.06028L9.08351 20.3041Z" fill="#108F41"/>
<path d="M12.5218 21.9754C12.5218 22.3563 12.5217 22.4107 12.5605 22.4884C12.6069 22.5739 12.6921 22.5739 12.8547 22.5895C12.878 22.5895 12.8857 22.5973 12.8857 22.6439C12.8857 22.675 12.8857 22.6905 12.847 22.6905C12.6689 22.6905 12.4753 22.675 12.3049 22.675C12.1346 22.675 11.941 22.675 11.7783 22.6905C11.7474 22.6905 11.7396 22.6828 11.7396 22.6439C11.7396 22.605 11.7396 22.5973 11.7783 22.5895C11.9177 22.5739 12.0029 22.5739 12.0416 22.4884C12.0881 22.4029 12.0881 22.2319 12.0881 21.9754V20.5917C12.0881 20.2263 12.0881 20.1797 12.0494 20.0942C12.0107 20.0165 11.8945 20.0165 11.7396 20.0009C11.7164 20.0009 11.7086 19.9931 11.7086 19.9465C11.7086 19.8999 11.7086 19.8999 11.7396 19.8999C11.9177 19.8999 12.1191 19.9076 12.2817 19.9076C12.4288 19.9076 12.6689 19.8921 12.9089 19.8921C13.6678 19.8921 13.9544 20.203 13.9544 20.6072C13.9544 20.8949 13.7608 21.1747 13.3194 21.2913C13.482 21.5867 13.6678 21.9132 13.8692 22.2397C13.9544 22.3796 14.0241 22.4807 14.0937 22.5273C14.1557 22.5662 14.2176 22.5739 14.3261 22.5817C14.3493 22.5817 14.357 22.5817 14.357 22.6283C14.357 22.675 14.357 22.675 14.3261 22.675C14.1634 22.675 14.0473 22.6594 13.9234 22.6594C13.815 22.6594 13.7066 22.6594 13.5749 22.6594C13.5439 22.5662 13.4897 22.4573 13.4355 22.3641C13.2497 22.022 13.0793 21.6955 12.8857 21.3535C12.847 21.3535 12.8005 21.3535 12.7618 21.3535C12.6844 21.3535 12.6224 21.3535 12.5218 21.3535V21.9676V21.9754ZM12.5218 21.2291C12.6069 21.2369 12.6999 21.2447 12.7696 21.2447C13.2884 21.2447 13.4742 20.9726 13.4742 20.6306C13.4742 20.2419 13.2806 20.0242 12.8392 20.0242C12.7386 20.0242 12.6147 20.0242 12.5682 20.0942C12.5218 20.1719 12.5295 20.374 12.5295 20.5917V21.2291H12.5218Z" fill="#108F41"/>
<path d="M15.2708 21.9754C15.2708 22.3563 15.2708 22.4107 15.3095 22.4884C15.3483 22.5662 15.4489 22.5662 15.6038 22.5817C15.627 22.5817 15.6348 22.5895 15.6348 22.6283C15.6348 22.6672 15.6348 22.675 15.5961 22.675C15.4102 22.675 15.2089 22.6672 15.0385 22.6672C14.8681 22.6672 14.6746 22.6672 14.5042 22.675C14.481 22.675 14.4732 22.675 14.4732 22.6283C14.4732 22.5817 14.4732 22.5817 14.4964 22.5817C14.6436 22.5662 14.7288 22.5662 14.7675 22.4884C14.8139 22.4029 14.8062 22.2319 14.8062 21.9754V20.5839C14.8062 20.2186 14.8062 20.1719 14.7675 20.0864C14.7288 20.0087 14.6281 20.0087 14.4732 19.9931C14.4577 19.9931 14.45 19.9931 14.45 19.9387C14.45 19.8999 14.45 19.8921 14.481 19.8921C14.6668 19.8921 14.8681 19.9076 15.0308 19.9076C15.2089 19.9076 15.4025 19.8999 15.5728 19.8921C15.5961 19.8921 15.6038 19.8921 15.6038 19.9465C15.6038 19.9854 15.5961 19.9931 15.5728 19.9931C15.4257 20.0087 15.3405 20.0087 15.3018 20.0864C15.2553 20.1719 15.2631 20.3429 15.2631 20.5839V21.9754H15.2708Z" fill="#108F41"/>
<path d="M16.9745 20.5839C16.9745 20.2341 16.9745 20.1719 16.9357 20.0942C16.897 20.0242 16.8118 20.0242 16.7189 20.0242C16.5408 20.0242 16.3782 20.0631 16.262 20.1564C16.1459 20.2497 16.0529 20.4207 15.991 20.5684C15.991 20.5839 15.9755 20.5995 15.929 20.5917C15.8903 20.5917 15.8903 20.5762 15.8903 20.5528C15.9213 20.3585 15.9445 20.0864 15.96 19.8921C16.3937 19.8999 16.7963 19.9076 17.2145 19.9076C17.6327 19.9076 18.0354 19.9076 18.4768 19.8921C18.4922 20.0864 18.5155 20.3585 18.5465 20.5528C18.5465 20.5762 18.5465 20.5839 18.5077 20.5917C18.4613 20.5917 18.4535 20.5917 18.4458 20.5684C18.3916 20.4285 18.2909 20.2574 18.1825 20.1564C18.0741 20.0631 17.9115 20.0242 17.7179 20.0242C17.6249 20.0242 17.5475 20.0242 17.4933 20.102C17.4391 20.1875 17.4468 20.3585 17.4468 20.5839V21.9754C17.4468 22.3563 17.4468 22.4029 17.4778 22.4884C17.5165 22.5662 17.6249 22.5662 17.7721 22.5817C17.7953 22.5817 17.803 22.5895 17.803 22.6283C17.803 22.6672 17.803 22.675 17.7643 22.675C17.6017 22.675 17.3849 22.6672 17.2145 22.6672C17.0441 22.6672 16.8351 22.6672 16.6879 22.675C16.6647 22.675 16.657 22.675 16.657 22.6283C16.657 22.5895 16.657 22.5817 16.6879 22.5739C16.8196 22.5584 16.9125 22.5584 16.9512 22.4807C16.9977 22.3874 16.9822 22.2241 16.9822 21.9676V20.5762L16.9745 20.5839Z" fill="#108F41"/>
<path d="M19.4835 21.3304C19.0266 21.0972 18.8794 20.9106 18.8794 20.5219C18.8794 20.1332 19.2202 19.8301 19.7313 19.8301C19.9016 19.8301 20.01 19.8534 20.1185 19.8845C20.2346 19.9156 20.374 19.9156 20.4979 19.8923C20.4979 20.0866 20.5211 20.3354 20.5366 20.5375C20.5366 20.553 20.5366 20.5686 20.4979 20.5763C20.4592 20.5763 20.4514 20.5763 20.4437 20.553C20.2966 20.2032 20.0565 19.9467 19.7545 19.9467C19.4912 19.9467 19.2976 20.1332 19.2976 20.4286C19.2976 20.5997 19.3983 20.7629 19.7235 20.9184L19.9326 21.0194C20.4747 21.2837 20.6683 21.4547 20.6683 21.9134C20.6683 22.4342 20.2888 22.7374 19.6461 22.7374C19.3828 22.7374 19.1273 22.6829 18.9104 22.6052C18.8562 22.3953 18.802 22.1543 18.7788 21.9678C18.7788 21.9445 18.7788 21.9134 18.8175 21.9056C18.8562 21.9056 18.8717 21.9056 18.8794 21.9289C19.0498 22.3176 19.3518 22.6208 19.6771 22.6208C20.0023 22.6208 20.2269 22.3875 20.2269 22.0688C20.2269 21.7812 20.0565 21.6257 19.6693 21.4314L19.4757 21.3304H19.4835Z" fill="#108F41"/>
<path d="M23.3631 20.5839C23.3631 20.3585 23.3399 20.2108 23.2934 20.1253C23.2547 20.0475 23.1308 20.0087 22.9992 19.9931C22.9759 19.9931 22.9682 19.9931 22.9682 19.9387C22.9682 19.8921 22.9682 19.8843 22.9992 19.8843C23.154 19.8843 23.3089 19.8998 23.4638 19.8998C23.6032 19.8998 23.7503 19.8998 23.8897 19.8843C23.9129 19.8843 23.9207 19.8843 23.9207 19.9309C23.9207 19.9776 23.9207 19.9853 23.8897 19.9853C23.7658 20.0009 23.6884 20.0475 23.6419 20.1253C23.5877 20.2185 23.549 20.3585 23.549 20.5761V21.0658C23.549 21.3146 23.5412 21.5478 23.5412 21.7732C23.5412 22.0764 23.4406 22.3174 23.2547 22.4884C23.0611 22.6439 22.8365 22.7449 22.5036 22.7449C22.0854 22.7449 21.7911 22.6283 21.5975 22.4417C21.4349 22.2941 21.3652 22.0919 21.3652 21.8354C21.3652 21.6022 21.3652 21.3301 21.3652 21.0814V20.5839C21.3652 20.2263 21.3652 20.1719 21.3187 20.0942C21.28 20.0164 21.1948 20.0087 21.0322 19.9931C21.009 19.9931 21.0013 19.9931 21.0013 19.9387C21.0013 19.8843 21.0013 19.8843 21.0322 19.8843C21.2103 19.8843 21.4117 19.8998 21.5743 19.8998C21.7524 19.8998 21.9615 19.8998 22.1318 19.8843C22.1551 19.8843 22.1628 19.8843 22.1628 19.9387C22.1628 19.9931 22.1628 19.9853 22.1318 19.9931C21.977 20.0087 21.9073 20.0087 21.8686 20.0942C21.8221 20.1797 21.8221 20.3507 21.8221 20.5839V21.0892C21.8221 21.2524 21.8221 21.4312 21.8221 21.5944C21.8221 21.9365 21.8376 22.1619 22.0157 22.3251C22.1473 22.4573 22.3487 22.5273 22.5423 22.5273C22.8133 22.5273 23.0301 22.4728 23.185 22.3096C23.3167 22.1774 23.3786 22.0064 23.3786 21.711C23.3786 21.5167 23.3786 21.3301 23.3786 21.0736V20.5839H23.3631Z" fill="#108F41"/>
<path d="M13.4975 27.8366C6.05567 27.8366 0 21.7578 0 14.2875C0 6.81717 6.05567 0.746094 13.4975 0.746094C20.9393 0.746094 26.995 6.82494 26.995 14.2952C26.995 21.7655 20.9393 27.8444 13.4975 27.8444V27.8366ZM13.4975 1.01816C6.2028 1.01816 0.271034 6.97263 0.271034 14.2875C0.271034 21.6023 6.2028 27.5568 13.4897 27.5568C20.7767 27.5568 26.7085 21.6023 26.7085 14.2875C26.7085 6.97263 20.7844 1.01816 13.4975 1.01816Z" fill="#108F41"/>
<path d="M48.5305 8.64424C48.275 7.64147 47.8646 6.70865 47.2993 5.8458C46.734 4.98294 46.0758 4.22114 45.3323 3.57595C44.5889 2.92298 43.7758 2.40993 42.893 2.0368C42.0102 1.6559 41.112 1.46934 40.2059 1.46934C39.0676 1.46934 38.1074 1.78805 37.3097 2.42548C36.5121 3.0629 36.1172 4.01126 36.1172 5.28611C36.1172 6.25779 36.4734 7.08178 37.1936 7.75807C37.9138 8.43436 38.812 9.04846 39.9039 9.60815C40.9881 10.1601 42.1574 10.7275 43.4041 11.295C44.6509 11.8625 45.8202 12.5465 46.9043 13.3472C47.9885 14.1479 48.8945 15.0962 49.6147 16.2078C50.3349 17.3194 50.6911 18.6953 50.6911 20.3511C50.6911 21.5171 50.4742 22.5665 50.0483 23.5149C49.6147 24.4632 49.0107 25.2639 48.2285 25.9324C47.4464 26.5932 46.5017 27.1062 45.3865 27.4716C44.2714 27.8369 43.0402 28.0157 41.6773 28.0157C41.0423 28.0157 40.415 27.9535 39.78 27.8369C39.145 27.7125 38.5255 27.5804 37.906 27.4327C37.2865 27.285 36.6593 27.1451 36.032 27.0285C35.397 26.9041 34.7698 26.8497 34.1348 26.8497C34.0341 26.8497 33.9025 26.873 33.7398 26.9119C33.5772 26.9507 33.3991 26.9974 33.2133 27.0518C33.0274 27.1062 32.8416 27.1606 32.6634 27.215C32.4853 27.2694 32.3459 27.3239 32.2453 27.3783C32.0439 25.8625 31.8271 24.3311 31.6025 22.7919C31.378 21.2528 31.0837 19.6981 30.7352 18.1279H31.5716C31.8503 19.1306 32.3072 20.1179 32.9345 21.0895C33.5617 22.0612 34.3051 22.9396 35.1492 23.7092C35.9933 24.4788 36.9071 25.0929 37.8983 25.5593C38.8817 26.0179 39.8575 26.2511 40.8177 26.2511C41.654 26.2511 42.4052 26.1812 43.0944 26.049C43.7758 25.9169 44.3644 25.6914 44.8522 25.3805C45.3478 25.0696 45.7195 24.6498 45.9906 24.1212C46.2539 23.5926 46.3855 22.9241 46.3855 22.1156C46.3855 21.004 46.0215 20.079 45.2859 19.3327C44.5502 18.5865 43.6364 17.9102 42.5368 17.3039C41.4372 16.6975 40.2524 16.1068 38.9747 15.5393C37.6969 14.9718 36.5121 14.3189 35.4125 13.5882C34.3129 12.8575 33.3991 11.9946 32.6634 10.9918C31.9278 9.98905 31.5638 8.76084 31.5638 7.29943C31.5638 4.75751 32.284 2.90743 33.7243 1.75696C35.1647 0.606486 37.3485 0.03125 40.2756 0.03125C41.0345 0.03125 41.7624 0.0934377 42.4749 0.21004C43.1796 0.334415 43.8533 0.474337 44.4805 0.63758C45.1078 0.800822 45.704 0.940745 46.2616 1.06512C46.8192 1.1895 47.338 1.24391 47.8181 1.24391H49.181C49.1578 1.70254 49.1268 2.13786 49.1036 2.54208C49.0804 2.9463 49.0649 3.36606 49.0649 3.80138C49.0649 4.5865 49.0958 5.39494 49.1578 6.23447C49.2197 7.074 49.274 7.88244 49.3282 8.66756H48.5305V8.64424Z" fill="#108F41"/>
<path d="M51.6745 26.3753C52.3792 26.2976 52.9677 26.1421 53.4324 25.9089C53.897 25.6757 54.2919 25.3725 54.6094 24.9994C54.9269 24.6185 55.2057 24.1832 55.4458 23.6779C55.6858 23.1804 55.9336 22.6052 56.1814 21.9522L63.6078 3.40474L62.9263 1.4536C63.7317 1.29036 64.5293 1.09602 65.3114 0.862815C66.0935 0.629611 66.8524 0.341993 67.5803 -0.0078125L75.7965 23.8956C76.0986 24.7584 76.6329 25.3881 77.384 25.7845C78.1429 26.1732 78.9096 26.3753 79.6917 26.3753V27.347C79.2116 27.3159 78.6695 27.2926 78.0655 27.2693C77.4615 27.2382 76.8574 27.2226 76.2457 27.2071C75.6417 27.1915 75.0377 27.1837 74.4259 27.1837H72.8384C71.7775 27.1837 70.7243 27.1993 69.6789 27.2226C68.6335 27.2459 67.5803 27.2926 66.5194 27.347V26.3753C67.8281 26.2665 68.8039 26.0333 69.4389 25.6835C70.0661 25.3337 70.3836 24.8051 70.3836 24.0977C70.3836 23.8567 70.3371 23.5458 70.252 23.1649C70.1668 22.784 70.0506 22.4031 69.9112 22.0066C69.7718 21.618 69.6325 21.2215 69.4931 20.8328C69.3537 20.4442 69.2375 20.1099 69.1369 19.8378L67.8514 15.819H60.3166L58.3884 21.5402C58.2645 21.9211 58.1329 22.2865 57.9935 22.6363C57.8541 22.9861 57.7844 23.4369 57.7844 23.9733C57.7844 24.2998 57.8928 24.5952 58.1096 24.8673C58.3265 25.1393 58.6053 25.3725 58.946 25.5746C59.2867 25.7768 59.6507 25.9478 60.0456 26.0799C60.4405 26.2121 60.7968 26.3131 61.122 26.3675V27.3392C60.3166 27.2848 59.4958 27.2459 58.6827 27.2148C57.8618 27.1837 57.0487 27.176 56.2434 27.176C55.4845 27.176 54.7256 27.1915 53.9744 27.2148C53.2155 27.2382 52.4567 27.2848 51.7055 27.3392V26.3675L51.6745 26.3753ZM67.3171 14.2876L64.2118 4.78841H64.1343L60.8432 14.2876H67.3171Z" fill="#108F41"/>
<path d="M79.2503 26.3753C80.4351 26.1887 81.3721 25.9866 82.0536 25.7689C82.735 25.5513 83.2539 25.217 83.6101 24.7739C83.9663 24.3308 84.1909 23.7401 84.2915 23.0094C84.3922 22.2787 84.4464 21.307 84.4464 20.0865L84.6013 4.29864C84.2761 3.89442 83.9043 3.54462 83.4862 3.24145C83.068 2.94606 82.6344 2.69731 82.1775 2.48743C81.7206 2.28532 81.256 2.10653 80.7758 1.95883C80.2957 1.81114 79.8156 1.67121 79.3355 1.53129V0.567383C79.9937 0.621797 80.6519 0.676211 81.3257 0.730625C81.9916 0.78504 82.6576 0.80836 83.3158 0.80836C85.0582 0.80836 86.7773 0.730625 88.4655 0.567383C90.9899 3.92552 93.5454 7.19814 96.1318 10.3853C98.7183 13.5802 101.212 16.8916 103.612 20.3275H103.69V17.0393C103.69 15.7179 103.674 14.342 103.636 12.9194C103.597 11.4969 103.543 10.121 103.465 8.78393C103.388 7.44689 103.279 6.31197 103.125 5.3947C103.024 4.69509 102.853 4.11985 102.613 3.66899C102.373 3.22591 102.064 2.86055 101.684 2.57294C101.305 2.28532 100.871 2.07543 100.375 1.92774C99.8799 1.78004 99.33 1.64789 98.726 1.53907V0.567383C99.6088 0.621797 100.499 0.676211 101.398 0.730625C102.296 0.78504 103.186 0.80836 104.069 0.80836C105.835 0.80836 107.593 0.730625 109.335 0.567383V1.53907C108.352 1.59348 107.569 1.74117 106.989 1.98215C106.408 2.22313 105.974 2.63512 105.68 3.20259C105.386 3.77005 105.2 4.53185 105.115 5.49576C105.03 6.45966 104.983 7.6801 104.983 9.16483V27.79H102.745C101.986 26.5463 101.127 25.217 100.166 23.81C99.2062 22.403 98.1995 20.9883 97.154 19.5657C96.1086 18.1432 95.0477 16.744 93.9713 15.368C92.8949 13.9921 91.8727 12.6862 90.8815 11.4735C89.8981 10.2531 88.9843 9.14151 88.1557 8.12318C87.3194 7.10486 86.6147 6.2731 86.0339 5.6279V19.3869C86.0339 20.7628 86.0804 21.8667 86.1888 22.6906C86.2894 23.5146 86.514 24.1754 86.8547 24.6573C87.1955 25.1471 87.6911 25.5046 88.3493 25.7301C89.0075 25.9633 89.8903 26.1732 90.9977 26.3597V27.3314C90.0607 27.277 89.1392 27.2381 88.2331 27.207C87.3271 27.1759 86.4056 27.1682 85.4686 27.1682C84.4077 27.1682 83.37 27.1837 82.3633 27.207C81.3566 27.2303 80.319 27.277 79.2581 27.3314V26.3597L79.2503 26.3753Z" fill="#108F41"/>
<path d="M110.156 0.652891C111.093 0.707305 112.007 0.746172 112.905 0.777266C113.803 0.80836 114.818 0.816133 115.956 0.816133C117.319 0.816133 118.682 0.777266 120.045 0.691758C121.408 0.614024 122.833 0.567383 124.327 0.567383C125.644 0.567383 126.821 0.769493 127.866 1.17371C128.911 1.57793 129.81 2.13762 130.553 2.86055C131.297 3.57571 131.862 4.40747 132.257 5.35583C132.644 6.3042 132.845 7.33029 132.845 8.4419C132.845 9.39026 132.698 10.222 132.412 10.9372C132.117 11.6523 131.722 12.2742 131.219 12.8028C130.716 13.3314 130.119 13.7667 129.438 14.1243C128.757 14.4741 128.013 14.7462 127.2 14.9327C127.727 15.85 128.385 16.9383 129.167 18.1976C129.949 19.4569 130.816 20.6695 131.761 21.8511C132.706 23.0249 133.728 24.0665 134.812 24.9527C135.896 25.8467 137.012 26.3986 138.142 26.6162V27.3469C137.406 27.2925 136.694 27.2537 136.005 27.2226C135.308 27.1915 134.595 27.1837 133.868 27.1837C133.233 27.1837 132.605 27.1993 131.97 27.2226C131.335 27.2459 130.708 27.2925 130.073 27.3469C128.486 25.5357 127.014 23.639 125.659 21.6646C124.312 19.6901 123.08 17.6224 121.965 15.4536C121.539 15.3991 121.051 15.3214 120.509 15.2126C119.967 15.1038 119.557 14.9405 119.278 14.7229V21.7423C119.278 22.6596 119.309 23.4058 119.371 23.9733C119.433 24.5407 119.596 24.9916 119.867 25.3103C120.13 25.6368 120.517 25.87 121.021 26.0177C121.524 26.1654 122.221 26.282 123.104 26.3597V27.3314C122.221 27.277 121.253 27.2381 120.207 27.207C119.162 27.1759 118.093 27.1682 117.009 27.1682C115.848 27.1682 114.702 27.1837 113.563 27.207C112.425 27.2303 111.287 27.277 110.156 27.3314V26.3597C111.093 26.282 111.829 26.1654 112.371 26.0177C112.913 25.87 113.315 25.629 113.586 25.3103C113.85 24.9838 114.02 24.5407 114.098 23.9733C114.175 23.4058 114.214 22.6596 114.214 21.7423V6.32752C114.214 5.51908 114.175 4.82724 114.098 4.25978C114.02 3.69231 113.85 3.21813 113.586 2.83723C113.323 2.45633 112.92 2.16872 112.371 1.96661C111.829 1.7645 111.085 1.62457 110.156 1.53907V0.652891ZM119.286 13.1448C120.091 13.5491 120.943 13.7512 121.826 13.7512C123.491 13.7512 124.838 13.2537 125.86 12.2509C126.883 11.2481 127.394 9.7867 127.394 7.86666C127.394 7.05822 127.27 6.28865 127.037 5.57349C126.797 4.85833 126.449 4.23646 126 3.70786C125.551 3.17926 125.001 2.76727 124.374 2.47188C123.739 2.17649 123.034 2.02879 122.252 2.02879C121.748 2.02879 121.253 2.05989 120.773 2.10653C120.293 2.16094 119.797 2.28532 119.294 2.47188V13.1448H119.286Z" fill="#108F41"/>
<path d="M137.693 0.567383C138.855 0.621797 140.001 0.676211 141.139 0.730625C142.277 0.78504 143.423 0.80836 144.585 0.80836C145.747 0.80836 146.784 0.78504 147.861 0.730625C148.937 0.676211 150.029 0.621797 151.136 0.567383V1.53907C150.277 1.57016 149.564 1.67121 148.999 1.84223C148.434 2.02102 147.992 2.27754 147.675 2.6118C147.357 2.95383 147.14 3.39692 147.009 3.94884C146.885 4.50075 146.823 5.18482 146.823 6.00103V23.2115C146.823 24.2687 147.14 25.0382 147.768 25.528C148.395 26.0177 149.487 26.2975 151.028 26.383L150.95 27.3547C149.835 27.3003 148.743 27.2614 147.652 27.2303C146.567 27.1993 145.468 27.1915 144.36 27.1915C143.253 27.1915 142.091 27.207 140.953 27.2303C139.815 27.2537 138.684 27.3003 137.546 27.3547V26.383C139.087 26.3053 140.171 26.0177 140.806 25.528C141.433 25.0382 141.751 24.2687 141.751 23.2115V6.0088C141.751 4.41525 141.464 3.28032 140.899 2.61958C140.334 1.95883 139.265 1.60125 137.701 1.54684V0.567383H137.693Z" fill="#108F41"/>
<path d="M175.111 9.04823C174.832 7.5324 174.461 6.33529 173.996 5.45689C173.531 4.57849 172.951 3.90997 172.269 3.45134C171.588 2.9927 170.806 2.69731 169.923 2.55739C169.04 2.42524 168.026 2.35528 166.895 2.35528V21.7501C166.895 22.6673 166.934 23.4214 167.011 24.0044C167.089 24.5874 167.267 25.0538 167.538 25.4036C167.816 25.7534 168.235 26.0099 168.784 26.1732C169.342 26.3364 170.093 26.4608 171.053 26.5385V27.3469C169.992 27.2925 168.924 27.2537 167.855 27.2226C166.779 27.1915 165.702 27.1837 164.618 27.1837C163.457 27.1837 162.311 27.1993 161.172 27.2226C160.034 27.2459 158.865 27.2925 157.649 27.3469V26.5385C158.609 26.4608 159.368 26.3364 159.925 26.1732C160.483 26.0099 160.893 25.7534 161.172 25.4036C161.451 25.0538 161.629 24.5874 161.699 24.0044C161.776 23.4214 161.815 22.6751 161.815 21.7501V2.35528C160.677 2.35528 159.67 2.42524 158.787 2.55739C157.904 2.68954 157.122 2.9927 156.441 3.45134C155.759 3.90997 155.186 4.57849 154.714 5.45689C154.249 6.33529 153.878 7.5324 153.599 9.04823H152.615C152.662 8.53518 152.708 8.01436 152.747 7.48576C152.786 6.95717 152.824 6.36638 152.863 5.72119C152.902 5.07599 152.933 4.32974 152.956 3.4902C152.979 2.65067 152.995 1.67899 152.995 0.567383C154.892 0.621797 156.758 0.676211 158.601 0.730625C160.444 0.78504 162.303 0.80836 164.169 0.80836C166.035 0.80836 167.956 0.78504 169.853 0.730625C171.75 0.676211 173.655 0.621797 175.576 0.567383C175.576 1.67899 175.591 2.65067 175.614 3.4902C175.638 4.32974 175.669 5.07599 175.707 5.72119C175.746 6.37416 175.785 6.95717 175.824 7.48576C175.862 8.01436 175.909 8.53518 175.955 9.04823H175.119H175.111Z" fill="#108F41"/>
<path d="M195.787 8.64424C195.532 7.64147 195.121 6.70865 194.556 5.8458C193.991 4.98294 193.332 4.22114 192.589 3.57595C191.846 2.92298 191.032 2.40993 190.15 2.0368C189.267 1.6559 188.369 1.46934 187.463 1.46934C186.324 1.46934 185.364 1.78805 184.566 2.42548C183.769 3.0629 183.374 4.01126 183.374 5.28611C183.374 6.25779 183.73 7.08178 184.45 7.75807C185.17 8.43436 186.069 9.04846 187.161 9.60815C188.245 10.1601 189.414 10.7275 190.661 11.295C191.907 11.8625 193.077 12.5465 194.161 13.3472C195.245 14.1479 196.151 15.0962 196.871 16.2078C197.591 17.3194 197.948 18.6953 197.948 20.3511C197.948 21.5171 197.731 22.5665 197.305 23.5149C196.871 24.4632 196.267 25.2639 195.485 25.9324C194.703 26.5932 193.758 27.1062 192.643 27.4716C191.528 27.8369 190.297 28.0157 188.934 28.0157C188.299 28.0157 187.672 27.9535 187.037 27.8369C186.402 27.7125 185.782 27.5804 185.163 27.4327C184.543 27.285 183.916 27.1451 183.289 27.0285C182.654 26.9041 182.026 26.8497 181.391 26.8497C181.291 26.8497 181.159 26.873 180.996 26.9119C180.834 26.9507 180.656 26.9974 180.47 27.0518C180.284 27.1062 180.098 27.1606 179.92 27.215C179.742 27.2694 179.603 27.3239 179.502 27.3783C179.301 25.8625 179.084 24.3311 178.859 22.7919C178.635 21.2528 178.34 19.6981 177.992 18.1279H178.828C179.107 19.1306 179.564 20.1179 180.191 21.0895C180.818 22.0612 181.562 22.9396 182.406 23.7092C183.25 24.4788 184.164 25.0929 185.155 25.5593C186.138 26.0179 187.114 26.2511 188.074 26.2511C188.911 26.2511 189.662 26.1812 190.351 26.049C191.032 25.9169 191.621 25.6914 192.109 25.3805C192.604 25.0696 192.976 24.6498 193.247 24.1212C193.51 23.5926 193.642 22.9241 193.642 22.1156C193.642 21.004 193.278 20.079 192.542 19.3327C191.807 18.5865 190.893 17.9102 189.793 17.3039C188.694 16.6975 187.509 16.1068 186.231 15.5393C184.954 14.9718 183.769 14.3189 182.669 13.5882C181.569 12.8575 180.656 11.9946 179.92 10.9918C179.184 9.98905 178.82 8.76084 178.82 7.29943C178.82 4.75751 179.541 2.90743 180.981 1.75696C182.421 0.606486 184.605 0.03125 187.532 0.03125C188.291 0.03125 189.019 0.0934377 189.731 0.21004C190.436 0.334415 191.11 0.474337 191.737 0.63758C192.364 0.800822 192.961 0.940745 193.518 1.06512C194.076 1.1895 194.595 1.24391 195.075 1.24391H196.438C196.414 1.70254 196.383 2.13786 196.36 2.54208C196.337 2.9463 196.321 3.36606 196.321 3.80138C196.321 4.5865 196.352 5.39494 196.414 6.23447C196.476 7.074 196.531 7.88244 196.585 8.66756H195.787V8.64424Z" fill="#108F41"/>
<path d="M200.108 0.567383C202.307 0.730625 204.514 0.80836 206.737 0.80836C208.959 0.80836 211.221 0.730625 213.443 0.567383L213.327 1.53907C212.39 1.59348 211.654 1.70231 211.112 1.86555C210.57 2.02879 210.167 2.27754 209.904 2.61958C209.641 2.96161 209.47 3.42024 209.393 3.99548C209.316 4.57849 209.277 5.32474 209.277 6.24978V19.7212C209.277 20.4519 209.409 21.1748 209.672 21.89C209.935 22.6051 210.353 23.2503 210.919 23.8178C211.484 24.3853 212.22 24.8439 213.118 25.1937C214.016 25.5435 215.092 25.7223 216.355 25.7223C217.873 25.7223 219.127 25.4735 220.126 24.9683C221.125 24.4708 221.907 23.8489 222.472 23.1182C223.038 22.3875 223.44 21.5868 223.665 20.724C223.889 19.8611 224.006 19.0604 224.006 18.3297V8.34862C224.006 6.99603 223.944 5.88443 223.82 5.02157C223.696 4.15872 223.464 3.46688 223.138 2.95383C222.813 2.44079 222.364 2.07543 221.814 1.85778C221.257 1.64012 220.536 1.53129 219.654 1.53129V0.567383C220.234 0.621797 220.962 0.676211 221.83 0.730625C222.697 0.78504 223.618 0.80836 224.579 0.80836C225.361 0.80836 226.135 0.78504 226.91 0.730625C227.676 0.676211 228.443 0.621797 229.202 0.567383V1.53907C228.365 1.59348 227.715 1.70231 227.25 1.86555C226.786 2.02879 226.422 2.27754 226.174 2.61958C225.918 2.96161 225.763 3.42024 225.702 3.99548C225.64 4.57849 225.609 5.32474 225.609 6.24978V17.3658C225.609 20.7473 224.718 23.3669 222.937 25.217C221.156 27.0671 218.662 27.9999 215.456 27.9999C213.536 27.9999 211.887 27.7512 210.493 27.2459C209.107 26.7484 207.953 26.0876 207.047 25.2792C206.141 24.4708 205.459 23.5613 205.018 22.5585C204.576 21.5557 204.352 20.5529 204.352 19.5579V6.24978C204.352 5.51908 204.313 4.87388 204.236 4.32196C204.158 3.77005 203.98 3.29587 203.701 2.89942C203.423 2.51075 203.004 2.19981 202.431 1.96661C201.866 1.74118 201.084 1.59348 200.1 1.53907V0.567383H200.108Z" fill="#108F41"/>
<path d="M244.535 18.6485C244.403 19.0216 244.233 19.3792 244.078 19.6901C243.985 19.8767 243.946 19.9544 243.869 19.9544C243.807 19.9544 243.721 19.9 243.567 19.7834C243.373 19.6357 243.102 19.4958 242.815 19.4025C243.396 18.4774 243.714 17.5913 243.923 16.5574C243.977 16.3087 244.016 16.0521 244.016 15.7412C244.411 15.7956 244.837 15.8889 245.146 15.9822C245.262 16.021 245.355 16.0599 245.355 16.1532C245.355 16.2309 245.317 16.3009 245.247 16.4019C245.185 16.4952 245.154 16.6118 245.092 16.8917C245.053 17.0782 244.999 17.2648 244.945 17.4591H245.897V17.0394C245.897 16.1299 245.882 15.7412 245.805 15.1193C246.292 15.1349 246.687 15.1582 247.136 15.2126C247.284 15.2281 247.361 15.2748 247.361 15.3447C247.361 15.4536 247.322 15.5391 247.284 15.6324C247.206 15.7878 247.191 16.0677 247.191 17.0083V17.4591H248.151C249.282 17.4591 249.669 17.4358 249.746 17.4358C249.878 17.4358 249.893 17.4514 249.893 17.5913V18.5319C249.893 18.664 249.878 18.6796 249.746 18.6796C249.669 18.6796 249.282 18.6562 248.151 18.6562H247.191V20.3897H248.546C249.8 20.3897 250.234 20.3664 250.311 20.3664C250.428 20.3664 250.443 20.3819 250.443 20.4986V21.4469C250.443 21.5946 250.428 21.6024 250.311 21.6024C250.234 21.6024 249.8 21.5791 248.546 21.5791H247.609C248.414 22.9316 249.545 24.0122 250.745 24.8595C250.551 25.1004 250.366 25.3881 250.195 25.8C250.118 25.9866 250.064 26.0643 249.986 26.0643C249.916 26.0643 249.839 26.0099 249.707 25.8933C248.716 24.9916 247.787 23.88 247.152 22.6363C247.167 24.7273 247.229 26.7484 247.229 27.0127C247.229 27.1293 247.214 27.1449 247.082 27.1449H245.998C245.866 27.1449 245.851 27.1293 245.851 27.0127C245.851 26.7484 245.905 24.774 245.928 22.7373C245.193 24.1288 244.271 25.0927 243.203 25.9477C243.055 26.0643 242.963 26.1343 242.901 26.1343C242.823 26.1343 242.769 26.041 242.676 25.8467C242.521 25.5124 242.32 25.2792 242.111 25.0771C243.365 24.2687 244.511 23.1959 245.433 21.5713H244.999C243.737 21.5713 243.303 21.5946 243.218 21.5946C243.133 21.5946 243.102 21.5946 243.086 21.5557C242.955 21.8045 242.823 22.061 242.746 22.2554C242.684 22.3875 242.637 22.4652 242.591 22.4652C242.552 22.4652 242.498 22.3875 242.42 22.2243C242.142 21.7112 241.894 21.1282 241.685 20.5063C241.7 23.9966 241.778 26.7873 241.778 27.0283C241.778 27.1604 241.762 27.176 241.631 27.176H240.562C240.415 27.176 240.407 27.1604 240.407 27.0283C240.407 26.7873 240.469 24.1443 240.5 21.0116C240.183 22.1388 239.733 23.1571 239.153 24.0899C239.075 24.222 239.005 24.2998 238.951 24.2998C238.889 24.2998 238.843 24.222 238.796 24.0743C238.665 23.6623 238.494 23.3048 238.347 23.0793C239.207 21.9444 239.888 20.5374 240.353 18.835H240.066C239.184 18.835 238.905 18.8584 238.827 18.8584C238.696 18.8584 238.68 18.8428 238.68 18.7107V17.7701C238.68 17.6379 238.696 17.6224 238.827 17.6224C238.905 17.6224 239.184 17.6457 240.066 17.6457H240.461V16.8528C240.461 16.0366 240.446 15.609 240.353 15.0571C240.856 15.0727 241.274 15.096 241.669 15.1504C241.801 15.166 241.894 15.2126 241.894 15.2826C241.894 15.3992 241.855 15.4691 241.816 15.5624C241.739 15.7179 241.724 15.9355 241.724 16.845V17.6535C242.475 17.6535 242.722 17.6301 242.808 17.6301C242.939 17.6301 242.955 17.6457 242.955 17.7778V18.7184C242.955 18.8506 242.939 18.8661 242.808 18.8661C242.73 18.8661 242.506 18.8506 241.809 18.8428C242.149 19.6512 242.575 20.3509 243.086 21.0271V20.483C243.086 20.3664 243.102 20.3509 243.234 20.3509C243.311 20.3509 243.745 20.3742 245.015 20.3742H245.913V18.6407H244.558L244.535 18.6485Z" fill="#231815"/>
<path d="M254.818 18.8894C253.618 18.8894 253.208 18.9127 253.13 18.9127C252.999 18.9127 252.999 18.8972 252.999 18.7573V17.7156C252.999 17.5679 252.999 17.5602 253.13 17.5602C253.208 17.5602 253.618 17.5835 254.818 17.5835H259.55C259.55 17.4125 259.534 17.2259 259.534 17.0393C259.534 16.1532 259.511 15.7723 259.426 15.1504C259.898 15.1659 260.417 15.1737 260.859 15.2281C260.99 15.2437 261.068 15.3059 261.068 15.3836C261.068 15.4924 261.013 15.5857 260.99 15.6634C260.928 15.85 260.913 16.1143 260.928 17.0005V17.5835H262.547C263.747 17.5835 264.157 17.5602 264.235 17.5602C264.366 17.5602 264.382 17.5757 264.382 17.7156V18.7573C264.382 18.905 264.366 18.9127 264.235 18.9127C264.157 18.9127 263.747 18.8894 262.547 18.8894H260.982C261.075 20.6074 261.284 22.0999 261.734 23.4136C262.113 24.6029 262.523 25.3725 262.918 25.3725C263.275 25.3725 263.429 24.6418 263.515 23.4447C263.708 23.6468 264.08 23.88 264.374 24.0432C264.627 24.1832 264.738 24.3904 264.707 24.6651C264.444 26.3597 263.894 27.0749 263.112 27.0593C262.113 27.0438 261.192 26.1032 260.533 24.1521C260.03 22.714 259.759 20.8717 259.627 18.905H254.834L254.818 18.8894ZM256.956 21.82V24.4086C257.823 24.1987 258.737 23.9422 259.527 23.6701C259.503 23.9111 259.488 24.2376 259.488 24.5019C259.488 24.7921 259.356 24.976 259.093 25.0538C257.776 25.4891 255.802 26.0332 254.377 26.3364C254.052 26.4141 253.905 26.4841 253.827 26.5307C253.734 26.5851 253.665 26.624 253.587 26.624C253.51 26.624 253.44 26.5696 253.401 26.453C253.293 26.1343 253.161 25.5824 253.06 25.116C253.51 25.1004 253.85 25.0538 254.323 24.9605L255.585 24.7195V21.8122H255.136C254.013 21.8122 253.649 21.8356 253.572 21.8356C253.44 21.8356 253.424 21.82 253.424 21.7034V20.7084C253.424 20.5607 253.44 20.5529 253.572 20.5529C253.649 20.5529 254.021 20.5763 255.136 20.5763H257.467C258.574 20.5763 258.946 20.5529 259.023 20.5529C259.17 20.5529 259.178 20.5685 259.178 20.7084V21.7034C259.178 21.82 259.163 21.8356 259.023 21.8356C258.946 21.8356 258.574 21.8122 257.467 21.8122H256.956V21.82ZM262.268 15.368C262.345 15.3136 262.384 15.2903 262.423 15.2903C262.462 15.2903 262.5 15.3136 262.554 15.368C262.965 15.7023 263.368 16.1376 263.685 16.5885C263.762 16.6973 263.747 16.744 263.592 16.8528L262.973 17.2725C262.895 17.327 262.841 17.3503 262.802 17.3503C262.764 17.3503 262.725 17.3114 262.686 17.2415C262.4 16.7517 262.005 16.3009 261.656 15.9822C261.548 15.8733 261.579 15.8345 261.71 15.7412L262.26 15.3603L262.268 15.368Z" fill="#231815"/>
<path d="M270.136 19.2549C269.4 19.7991 268.595 20.2732 267.751 20.6852C267.596 20.763 267.503 20.8018 267.433 20.8018C267.34 20.8018 267.301 20.7086 267.193 20.4676C267.038 20.1333 266.852 19.8457 266.597 19.5969C268.889 18.6875 270.6 17.2805 271.653 15.7491C271.878 15.4148 271.994 15.1972 272.118 14.8862C272.629 14.9484 273.117 15.0417 273.543 15.1661C273.698 15.2049 273.783 15.2594 273.783 15.3526C273.783 15.4304 273.76 15.5081 273.651 15.5625C273.574 15.6014 273.52 15.6403 273.465 15.6791C274.952 17.5059 276.733 18.6564 279.041 19.4648C278.793 19.7835 278.623 20.1022 278.476 20.4598C278.383 20.7008 278.344 20.7941 278.251 20.7941C278.189 20.7941 278.096 20.7552 277.949 20.6852C277.051 20.2888 276.199 19.8224 275.432 19.286V20.2655C275.432 20.3976 275.417 20.4132 275.285 20.4132C275.208 20.4132 274.852 20.3898 273.798 20.3898H271.77C270.716 20.3898 270.36 20.4132 270.283 20.4132C270.151 20.4132 270.136 20.3976 270.136 20.2655V19.2627V19.2549ZM269.292 22.8385C268.053 22.8385 267.634 22.8618 267.549 22.8618C267.402 22.8618 267.394 22.8463 267.394 22.7141V21.7191C267.394 21.587 267.41 21.5714 267.549 21.5714C267.627 21.5714 268.053 21.5947 269.292 21.5947H276.315C277.554 21.5947 277.972 21.5714 278.058 21.5714C278.205 21.5714 278.212 21.587 278.212 21.7191V22.7141C278.212 22.8463 278.197 22.8618 278.058 22.8618C277.98 22.8618 277.554 22.8385 276.315 22.8385H272.242C271.917 23.6547 271.514 24.4942 271.073 25.326C272.443 25.2483 273.876 25.1239 275.13 24.9917C274.828 24.6186 274.526 24.2533 274.17 23.8646C274.077 23.7557 274.093 23.7091 274.248 23.6236L275.092 23.1883C275.239 23.1106 275.278 23.1183 275.37 23.2116C276.269 24.1522 277.02 25.1006 277.825 26.2821C277.887 26.391 277.887 26.4376 277.763 26.5309L276.857 27.1294C276.78 27.1838 276.741 27.2072 276.702 27.2072C276.664 27.2072 276.64 27.1838 276.594 27.1139C276.369 26.7408 276.145 26.3987 275.936 26.08C273.752 26.3599 271.065 26.5853 268.819 26.7563C268.61 26.7718 268.44 26.8263 268.347 26.8729C268.285 26.9273 268.215 26.9506 268.122 26.9506C268.029 26.9506 267.967 26.8885 267.936 26.7641C267.82 26.3288 267.743 25.8624 267.658 25.4037C268.145 25.4426 268.579 25.427 269.09 25.4037C269.222 25.4037 269.369 25.3882 269.508 25.3882C269.981 24.4865 270.368 23.6391 270.67 22.8229H269.299L269.292 22.8385ZM273.798 19.1539C274.681 19.1539 275.076 19.1383 275.223 19.1305C274.271 18.4465 273.442 17.638 272.73 16.713C272.033 17.638 271.227 18.4465 270.321 19.1305C270.438 19.1461 270.809 19.1539 271.77 19.1539H273.798Z" fill="#231815"/>
<path d="M282.89 22.3252C282.479 22.7217 282.077 23.0948 281.635 23.4213C281.504 23.5301 281.426 23.5923 281.356 23.5923C281.279 23.5923 281.225 23.4835 281.147 23.2891C281.016 22.916 280.861 22.574 280.69 22.3486C282.231 21.3691 283.47 19.9388 284.129 18.4307H282.642C281.643 18.4307 281.325 18.4541 281.248 18.4541C281.116 18.4541 281.101 18.4385 281.101 18.3064V17.3269C281.101 17.1948 281.116 17.1792 281.248 17.1792C281.325 17.1792 281.643 17.2025 282.642 17.2025H282.89V16.6584C282.89 15.9588 282.874 15.5312 282.781 15.0415C283.285 15.0571 283.68 15.0804 284.152 15.1348C284.284 15.1503 284.361 15.2125 284.361 15.2669C284.361 15.3835 284.322 15.4535 284.284 15.5468C284.206 15.7022 284.206 15.9277 284.206 16.604V17.2025H284.756C284.872 17.2025 284.942 17.187 285.004 17.1481C285.058 17.1248 285.112 17.0937 285.151 17.0937C285.228 17.0937 285.36 17.1714 285.639 17.4357C285.887 17.6845 285.995 17.8166 285.995 17.9099C285.995 17.9721 285.972 18.0421 285.863 18.1198C285.747 18.2364 285.67 18.3064 285.561 18.5007C285.244 19.177 284.864 19.8222 284.438 20.4285C284.95 21.0271 285.569 21.5012 286.374 21.9754C286.181 22.1853 285.995 22.504 285.848 22.8383C285.755 23.0326 285.693 23.1259 285.6 23.1259C285.538 23.1259 285.453 23.0715 285.337 22.9704C284.919 22.5895 284.531 22.162 284.206 21.7422V25.4579C284.206 26.4374 284.229 26.9504 284.229 27.0204C284.229 27.1526 284.214 27.1681 284.075 27.1681H283.021C282.874 27.1681 282.866 27.1526 282.866 27.0204C282.866 26.9427 282.89 26.4374 282.89 25.4579V22.2941V22.3252ZM287.288 26.6861C286.034 26.6861 285.6 26.7095 285.523 26.7095C285.391 26.7095 285.375 26.6939 285.375 26.5618V25.5201C285.375 25.388 285.391 25.3724 285.523 25.3724C285.6 25.3724 286.034 25.3957 287.288 25.3957H288.396V20.4518H287.799C286.63 20.4518 286.22 20.4674 286.142 20.4674C286.026 20.4674 286.01 20.4674 286.01 20.3352V19.2936C286.01 19.1614 286.026 19.1614 286.142 19.1614C286.22 19.1614 286.63 19.177 287.799 19.177H288.396V17.0704C288.396 16.1298 288.38 15.6789 288.287 15.0726C288.791 15.0881 289.286 15.1115 289.751 15.1659C289.867 15.1814 289.96 15.2281 289.96 15.298C289.96 15.4069 289.944 15.469 289.898 15.5779C289.82 15.7333 289.789 16.0676 289.789 17.0315V19.177H290.618C291.787 19.177 292.198 19.1614 292.275 19.1614C292.407 19.1614 292.422 19.1614 292.422 19.2936V20.3352C292.422 20.4674 292.407 20.4674 292.275 20.4674C292.198 20.4674 291.787 20.4518 290.618 20.4518H289.789V25.3957H290.99C292.244 25.3957 292.662 25.3724 292.74 25.3724C292.887 25.3724 292.895 25.388 292.895 25.5201V26.5618C292.895 26.6939 292.879 26.7095 292.74 26.7095C292.662 26.7095 292.236 26.6861 290.99 26.6861H287.288Z" fill="#231815"/>
<path d="M302.985 26.2043C301.521 26.2043 301.01 26.2353 300.917 26.2353C300.755 26.2353 300.739 26.2198 300.739 26.0566V24.6029C300.739 24.4397 300.755 24.4241 300.917 24.4241C301.018 24.4241 301.521 24.4552 302.985 24.4552H313.036C314.5 24.4552 314.988 24.4241 315.089 24.4241C315.251 24.4241 315.267 24.4397 315.267 24.6029V26.0566C315.267 26.2198 315.251 26.2353 315.089 26.2353C314.988 26.2353 314.5 26.2043 313.036 26.2043H302.985ZM304.433 15.5702C302.838 15.5702 302.296 15.6013 302.203 15.6013C302.04 15.6013 302.025 15.5857 302.025 15.4225V13.9688C302.025 13.8056 302.04 13.79 302.203 13.79C302.303 13.79 302.846 13.8211 304.433 13.8211H311.596C313.191 13.8211 313.733 13.79 313.826 13.79C314.004 13.79 314.02 13.8056 314.02 13.9688V15.4225C314.02 15.5857 314.004 15.6013 313.826 15.6013C313.726 15.6013 313.184 15.5702 311.596 15.5702H304.433ZM305.447 20.6462C303.868 20.6462 303.31 20.6773 303.217 20.6773C303.055 20.6773 303.039 20.6618 303.039 20.4985V19.0682C303.039 18.905 303.055 18.8894 303.217 18.8894C303.318 18.8894 303.875 18.9205 305.447 18.9205H310.574C312.154 18.9205 312.711 18.8894 312.804 18.8894C312.967 18.8894 312.982 18.905 312.982 19.0682V20.4985C312.982 20.6618 312.967 20.6773 312.804 20.6773C312.703 20.6773 312.146 20.6462 310.574 20.6462H305.447Z" fill="#231815"/>
<path d="M320.44 26.694C318.991 26.694 318.504 26.7251 318.403 26.7251C318.256 26.7251 318.24 26.7095 318.24 26.5463V25.1626C318.24 24.9993 318.256 24.9838 318.403 24.9838C318.504 24.9838 318.991 25.0149 320.44 25.0149H326.201C326.991 23.0171 327.564 21.0582 328.036 19.2625C328.168 18.7028 328.253 18.2598 328.3 17.6768C329.004 17.8555 329.631 18.0266 330.174 18.2364C330.321 18.2831 330.367 18.3686 330.367 18.4696C330.367 18.6018 330.282 18.7184 330.204 18.7961C330.057 18.9594 329.972 19.1926 329.895 19.4569C329.322 21.4313 328.694 23.2503 328.005 25.0149H330.778C332.226 25.0149 332.713 24.9838 332.814 24.9838C332.977 24.9838 332.992 24.9993 332.992 25.1626V26.5463C332.992 26.7095 332.977 26.7251 332.814 26.7251C332.713 26.7251 332.226 26.694 330.778 26.694H320.432H320.44ZM321.361 16.9694C319.82 16.9694 319.278 17.0005 319.177 17.0005C319.015 17.0005 318.999 16.9849 318.999 16.8061V15.4691C318.999 15.2903 319.015 15.2748 319.177 15.2748C319.278 15.2748 319.82 15.3058 321.361 15.3058H324.613V14.0388C324.613 13.3625 324.598 12.9349 324.497 12.5229C325.109 12.5229 325.713 12.554 326.302 12.6085C326.449 12.624 326.565 12.7095 326.565 12.7872C326.565 12.9038 326.518 12.9816 326.464 13.1137C326.41 13.2459 326.379 13.4946 326.379 14.0388V15.3058H329.895C331.451 15.3058 331.993 15.2748 332.094 15.2748C332.257 15.2748 332.272 15.2903 332.272 15.4691V16.8061C332.272 16.9849 332.257 17.0005 332.094 17.0005C331.993 17.0005 331.451 16.9694 329.895 16.9694H321.353H321.361ZM322.314 17.8322C322.53 17.7467 322.561 17.7623 322.623 17.9333C323.312 19.5346 323.916 21.2759 324.265 23.468C324.296 23.6312 324.296 23.6856 324.071 23.7478L322.794 24.1754C322.561 24.2609 322.515 24.2453 322.484 24.0588C322.19 21.9832 321.71 20.3353 320.943 18.5241C320.873 18.3608 320.896 18.3453 321.121 18.2598L322.321 17.8322H322.314Z" fill="#231815"/>
</g>
<defs>
<clipPath id="clip0_4261_1467">
<rect width="333" height="28" fill="white"/>
</clipPath>
</defs>
</svg>
